<svg width="275" height="176" viewBox="0 0 275 176" fill="none" xmlns="http://www.w3.org/2000/svg">
<path opacity="0.95" d="M136.914 80.7715H91.3649C87.7663 80.7715 84.849 77.998 84.849 74.5767V31.2715C84.849 27.8503 87.7663 25.0767 91.3649 25.0767H136.914C140.513 25.0767 143.43 27.8503 143.43 31.2715V74.5768C143.43 77.9981 140.513 80.7715 136.914 80.7715Z" fill="url(#paint0_linear_7_6180)"/>
<path d="M127.7 68.0917H100.579V69.3655H127.7V68.0917Z" fill="#96BFE6"/>
<path d="M123.859 72.1054H104.42V73.3792H123.859V72.1054Z" fill="#96BFE6"/>
<path opacity="0.95" d="M266.429 133.864H201.607C197.368 133.864 193.931 130.596 193.931 126.566V51.6909C193.931 47.6603 197.368 44.393 201.607 44.393H266.429C270.669 44.393 274.105 47.6603 274.105 51.6909V126.566C274.105 130.596 270.669 133.864 266.429 133.864Z" fill="url(#paint1_linear_7_6180)"/>
<path d="M236.642 97.1751H230.283V98.2948H236.642V97.1751Z" fill="#4598E6"/>
<path d="M243.143 107.435H206.141V109.603H243.143V107.435Z" fill="#96BFE6"/>
<path d="M236.062 117.843H206.141V120.011H236.062V117.843Z" fill="#96BFE6"/>
<path d="M223.682 112.639H206.141V114.807H223.682V112.639Z" fill="#96BFE6"/>
<path d="M252.823 53.3153V54.4102H259.604V60.4603H260.755V53.3153H252.823ZM206.778 60.4603H207.93V54.4102H214.71V53.3153H206.778V60.4603ZM259.603 91.6787V97.731H252.823V98.8258H260.755V91.6786H259.603V91.6787ZM207.93 91.6787H206.778V98.8259H214.71V97.7311H207.93V91.6787Z" fill="#4598E6"/>
<path d="M257.165 120.17C253.426 120.17 250.384 117.278 250.384 113.723C250.384 110.168 253.426 107.276 257.165 107.276C260.904 107.276 263.946 110.168 263.946 113.723C263.946 117.278 260.904 120.17 257.165 120.17ZM257.165 108.524C254.15 108.524 251.696 110.856 251.696 113.723C251.696 116.59 254.15 118.922 257.165 118.922C260.18 118.922 262.633 116.59 262.633 113.723C262.633 110.856 260.18 108.524 257.165 108.524Z" fill="#4598E6"/>
<path d="M256.733 116.26L253.652 113.331L254.58 112.449L256.733 114.496L259.75 111.626L260.678 112.509L256.733 116.26Z" fill="#4598E6"/>
<path opacity="0.95" d="M220.379 170.449C220.379 173.153 171.116 175.345 110.347 175.345C49.5785 175.345 0.315796 173.153 0.315796 170.449C0.315796 167.745 49.5785 165.553 110.347 165.553C171.116 165.553 220.379 167.745 220.379 170.449Z" fill="url(#paint2_linear_7_6180)"/>
<path d="M129.221 46.7671C127.921 43.4964 124.797 41.9948 123.322 41.5267C122.797 41.361 121.859 41.0698 120.87 40.7657C119.09 40.2186 117.144 39.6235 117.144 39.6235H110.998C110.998 39.6235 108.87 40.3016 106.608 41.0552C106.608 41.0571 106.606 41.0571 106.606 41.0571C104.523 41.7516 102.329 42.509 101.589 42.8629C100.044 43.5961 97.4453 48.8382 96.9202 49.4389C96.6489 49.7485 95.4434 51.7901 94.2573 54.0712H100.878C101.577 52.9288 102.116 52.0425 102.116 52.0425C102.116 52.0425 102.535 52.9159 103.042 54.0712H124.252C124.588 52.7297 124.797 51.0401 124.797 51.0401C124.797 51.0401 125.933 52.5086 127.173 54.0712H133.286C131.799 51.6996 129.954 48.6133 129.221 46.7671Z" fill="#0A1B29"/>
<path d="M114.803 23.568C114.803 23.568 119.608 24.2877 118.877 31.4355C118.145 38.5833 113.904 37.9975 113.621 37.9902C113.337 37.9831 109.363 38.1205 109.053 29.3935C109.053 29.3935 108.918 22.9403 114.803 23.568Z" fill="#EEA886"/>
<path d="M118.951 29.4165C118.951 29.4165 119.477 28.8822 119.67 29.4232C119.863 29.9641 118.952 32.3768 118.92 32.4896C118.92 32.4896 118.824 32.6994 118.697 32.584C118.571 32.4684 118.951 29.4165 118.951 29.4165Z" fill="#EEA886"/>
<path d="M109.183 29.3261C109.183 29.3261 108.667 28.7822 108.463 29.3195C108.259 29.8568 109.113 32.2854 109.151 32.3992C109.151 32.3992 109.243 32.6107 109.372 32.4976C109.5 32.3844 109.183 29.3261 109.183 29.3261Z" fill="#EEA886"/>
<path d="M118.949 30.5129L118.261 31.3873C118.261 31.3873 118.28 29.4703 118.17 29.1697C118.06 28.8691 117.891 27.9508 117.798 27.7343C117.706 27.5178 113.672 26.4429 110.109 28.0482C110.109 28.0482 110.265 29.4267 109.924 29.5494C109.582 29.6719 109.75 31.7944 109.75 31.7944L109.184 31.1876C109.184 31.1876 108.318 25.6884 108.532 25.1152C108.746 24.542 109.427 21.096 116.738 23.1416C116.738 23.1416 119.017 22.6827 119.474 24.1787C119.931 25.6746 118.949 30.5129 118.949 30.5129Z" fill="#434343"/>
<path d="M117.74 39.4944C117.738 39.488 117.123 39.2065 117.123 39.2065C116.824 38.5701 117.046 35.8849 117.046 35.8849C117.046 35.8849 110.926 34.404 111.101 35.5364C111.276 36.6688 110.574 39.2997 110.574 39.2997L107.434 40.7819C107.434 40.7819 110.779 49.3214 114.624 48.2197C118.468 47.1182 119.92 40.474 119.92 40.474L117.74 39.4944Z" fill="#EEA886"/>
<path d="M111.189 36.7943C111.189 36.7943 112.175 38.0046 113.886 38.0046C115.012 38.0046 115.82 37.7045 116.942 36.6648C116.942 36.6648 116.456 38.6393 113.894 38.823C113.894 38.823 112.036 39.0475 111.189 36.7943Z" fill="#A77860"/>
<path d="M93.5209 65.4684C93.5209 65.4684 97.0519 67.1105 96.1789 71.5777C95.306 76.0451 94.9195 76.6471 95.8961 78.3926C96.8727 80.138 98.025 87.5843 97.1461 88.9955C96.2672 90.4067 86.2671 82.7935 84.8804 76.4056C83.4937 70.0178 85.7593 67.1768 86.5601 66.1183C87.3609 65.0598 90.4035 63.9643 93.5209 65.4684Z" fill="#0E2D3D"/>
<path d="M92.1886 169.144H92.9888V165.555C92.9888 165.555 94.5586 166.55 95.5435 167.926C96.5284 169.301 97.8827 169.184 99.9449 169.096C102.007 169.008 101.915 168.218 101.73 167.106C101.545 165.994 99.4524 165.643 98.7753 165.467C98.0981 165.292 96.5609 162.774 96.0667 162.161C95.3926 161.325 95.0356 160.522 95.0356 160.522C95.0356 160.522 94.6509 159.03 92.7426 160.522C90.8343 162.014 91.3883 164.882 91.6037 165.146C91.8192 165.409 92.1886 169.144 92.1886 169.144Z" fill="#163342"/>
<path d="M96.2205 165.468C96.9284 165.907 98.7751 165.468 98.7751 165.468C98.2519 164.824 95.0355 160.522 95.0355 160.522C93.081 159.439 92.3086 160.93 92.3086 160.93C93.106 161.161 95.5126 165.029 96.2205 165.468Z" fill="#EEA886"/>
<path d="M116.8 99.2711C116.8 99.2711 118.081 99.5046 118.519 98.932C118.891 98.4453 119.742 98.0717 120.004 97.9562C120.354 97.8017 121.243 96.9469 121.452 97.3647C121.662 97.7826 120.058 98.8408 119.769 99.1265C119.479 99.4124 121.341 99.5387 121.662 99.8166C121.983 100.094 121.588 103.014 120.321 102.787C119.054 102.559 117.858 101.521 117.627 101.523C117.396 101.525 116.698 101.393 116.698 101.393L116.8 99.2711Z" fill="#EEA886"/>
<path d="M121.379 99.6973C121.379 99.6973 125.21 100.638 125.41 100.904C125.61 101.17 125.544 101.364 125.182 101.29C124.82 101.217 121.454 100.483 121.454 100.483C121.454 100.483 125.79 102.321 126.004 102.505C126.13 102.612 126.026 102.996 125.828 102.973C125.63 102.951 121.222 101.363 121.222 101.363C121.222 101.363 125.268 103.086 125.399 103.29C125.514 103.469 125.325 103.799 125.016 103.69C124.707 103.582 120.856 102.185 120.856 102.185C120.856 102.185 123.718 103.615 123.722 103.85C123.724 103.993 123.65 104.329 122.924 103.938C122.197 103.547 120.382 102.796 120.382 102.796L121.379 99.6973Z" fill="#EEA886"/>
<path d="M81.8191 169.389H82.3116V166.755C82.3116 166.755 83.1874 167.612 83.5874 168.87C83.9876 170.128 85.4202 170.501 87.6055 170.443C89.7908 170.384 89.8216 169.564 89.6368 168.335C89.4521 167.106 87.6055 166.462 87.6055 166.462C86.7745 165.76 84.7123 162.848 84.7123 162.848C84.7123 162.848 83.3888 162.512 82.3502 163.309C81.3116 164.106 81.6344 165.906 81.6653 166.375C81.696 166.843 81.8191 169.389 81.8191 169.389Z" fill="#163342"/>
<path d="M83.3272 106.65C83.3272 106.65 80.7231 109.869 80.0169 113.687C79.3106 117.506 80.4339 130.323 80.4033 132.211C80.3725 134.098 78.5258 138.795 78.8951 142.35C79.2645 145.905 80.722 163.601 80.722 163.601L84.7124 162.849C84.7124 162.849 84.4815 144.808 84.7124 143.316C84.9432 141.823 85.4065 136.383 85.4989 135.769C85.5913 135.154 91.3606 119.018 91.3606 116.265C91.3605 113.512 89.6061 102.158 83.3272 106.65Z" fill="#1D3B54"/>
<path d="M96.4083 107.908C96.4083 107.908 100.687 123.432 101.195 125.583C101.702 127.733 102.438 129.507 102.438 130.42C102.438 132.539 101.61 135.942 101.61 135.942L96.1773 160.645H91.0031C91.0031 160.645 93.886 145.824 93.9635 142.926C94.0413 140.022 96.3929 135.898 95.9312 134.669C95.4695 133.44 88.4981 119.262 88.4981 119.262C88.4981 119.262 83.2196 103.401 96.4083 107.908Z" fill="#1D3B54"/>
<path d="M87.6055 166.462L84.7123 162.848L82.3502 163.309C82.3502 163.309 82.9858 164.927 84.1341 166.144C85.4939 167.585 87.6055 166.462 87.6055 166.462Z" fill="#EEA886"/>
<path d="M94.6413 81.5271C94.6413 81.5271 96.4052 81.6853 97.7379 83.043C99.0708 84.4006 100.322 86.5656 100.671 87.2897C101.02 88.0138 105.913 94.7241 106.167 94.875C106.42 95.0259 108.88 95.8072 110.51 96.3287C113.025 97.1334 118.066 98.8752 118.066 98.8752L117.065 101.889C117.065 101.889 107.585 98.9399 105.211 98.3839C102.308 97.704 95.625 89.5525 95.625 89.5525C95.625 89.5525 90.6429 84.001 94.6413 81.5271Z" fill="#285173"/>
<path d="M91.5633 80.3506C91.5633 80.3506 93.848 81.3764 94.6413 81.5272C95.4347 81.678 98.5128 85.4795 99.0522 86.8673C99.5917 88.255 99.0522 90.3367 97.9415 92.7805C96.8309 95.2243 97.8781 96.0389 97.3703 98.4826C96.8626 100.926 97.0259 110.069 97.1211 111.426C97.2163 112.784 82.2679 114.842 79.3168 112.368C79.3168 112.368 81.3147 104.129 83.6801 101.777C84.1916 101.268 84.1375 97.8792 83.7886 97.0344C83.4395 96.1897 79.5046 89.8842 79.5046 89.8842C79.5046 89.8842 79.2156 83.4888 80.9325 82.2211C82.424 81.1198 86.4888 80.7272 87.2187 80.4858C87.9487 80.2446 90.0717 80.1394 91.5633 80.3506Z" fill="#FFBF55"/>
<path d="M92.6542 77.8439C92.6542 77.8439 92.586 78.4419 92.5071 79.2502C92.4768 79.57 92.4435 79.9231 92.4132 80.2848C92.3222 81.3685 92.2494 82.5312 92.2934 83.1264C92.2934 83.1264 89.9184 85.3888 87.2191 80.4866C87.2191 80.4866 88.3543 78.4649 87.4995 75.7126C86.6447 72.959 92.6542 77.8439 92.6542 77.8439Z" fill="#EEA886"/>
<path d="M99.2995 93.6817C99.2995 93.6817 99.871 90.0677 99.2633 87.8699C99.2633 87.8699 99.2633 89.7599 98.1733 92.4436L99.2995 93.6817Z" fill="#183C59"/>
<path d="M85.3947 80.8339C85.3947 80.8339 87.0279 85.4201 91.5119 85.0827C95.996 84.7453 93.6376 81.2103 93.6376 81.2103C93.6376 81.2103 92.52 80.6011 92.2056 80.5436C91.8911 80.486 87.248 80.4302 87.248 80.4302L85.3947 80.8339Z" fill="#EEA886"/>
<path d="M93.6375 81.2103C93.6375 81.2103 95.986 87.3867 95.986 93.6817C95.986 99.9765 96.1751 110.231 96.9951 113.469C97.815 116.707 100.149 126.722 100.149 126.722L101.978 125.822C101.978 125.822 97.5795 109.839 97.2474 108.687C96.9153 107.535 97.4997 95.3592 97.815 94.3398C98.1303 93.3203 99.4717 88.7825 99.2633 87.5235C99.0004 85.9364 97.4383 83.588 94.9155 81.5689L93.6375 81.2103Z" fill="#285173"/>
<path d="M86.2807 80.6409C86.2807 80.6409 87.7405 85.0846 88.4801 90.7757C89.2198 96.4668 86.2095 122.884 84.1912 128.88L76.37 127.681C76.37 127.681 78.0536 109.008 80.339 105.61C82.6244 102.212 83.3517 99.2056 80.8845 92.1131C78.4174 85.0205 81.9661 81.5079 81.9661 81.5079C81.9661 81.5079 85.595 80.7145 86.2807 80.6409Z" fill="#285173"/>
<path d="M94.7186 99.4852L85.2355 115.101L74.6932 109.315L83.7645 93.4725L94.7186 99.4852Z" fill="#616161"/>
<path d="M93.5755 100.022L85.1532 113.892L75.7903 108.752L83.8468 94.6823L93.5755 100.022Z" fill="#E0CEC7"/>
<path d="M90.4683 98.7765L91.0595 97.803L87.2743 95.7253L86.5352 96.6176L90.4683 98.7765Z" fill="#616161"/>
<path d="M90.0166 109.857C90.0166 109.857 89.5853 109.859 89.3963 109.772C89.3963 109.772 89.0651 109.589 88.8214 109.473C88.744 109.436 88.6756 109.406 88.6293 109.391C88.4359 109.327 87.9915 109.242 87.572 108.965C87.1531 108.689 85.6681 107.055 85.6681 107.055L86.3694 106.041L86.8836 105.002C86.8836 105.002 90.0015 105.194 90.4234 105.408C90.4646 105.43 90.5043 105.452 90.5399 105.476C90.8785 105.69 91.0355 105.985 91.1998 106.117C91.2598 106.166 91.822 106.689 91.8023 106.912C91.7756 107.221 91.6249 107.425 91.4288 107.527C91.4288 107.527 91.3482 108.13 91.0354 108.411C91.0354 108.411 90.9799 108.97 90.4861 109.215C90.4862 109.215 90.3632 109.775 90.0166 109.857Z" fill="#EEA886"/>
<path d="M83.5903 81.5271C83.5903 81.5271 80.7105 80.7427 79.0604 83.7598C77.4102 86.7768 77.4184 88.0642 77.1979 89.5374C76.9896 90.9284 76.0496 94.7264 75.9544 95.1186C75.8593 95.5107 73.7302 100.188 74.7064 101.822C75.6878 103.466 85.6553 108.302 85.5919 108.664C85.5284 109.026 87.3182 105.007 87.3182 105.007C87.3182 105.007 83.285 102.87 82.6244 102.212C81.5515 101.143 79.2879 99.9913 79.7529 98.6652C80.2992 97.1076 81.9401 91.8523 82.3209 91.0829C82.7017 90.3138 86.0179 82.5076 83.5903 81.5271Z" fill="#285173"/>
<path d="M93.0088 65.9637C93.0088 65.9637 98.1358 67.4956 95.3526 75.9075C92.5693 84.3193 85.5673 74.9327 86.2998 69.8075C87.0322 64.6823 93.0088 65.9637 93.0088 65.9637Z" fill="#EEA987"/>
<path d="M95.8765 70.872C95.8765 70.872 93.329 73.2489 89.0655 73.546C89.0655 73.546 87.4272 75.3725 87.3012 76.0893C87.3012 76.0893 83.4974 69.925 88.1733 66.2298C92.8492 62.5344 97.5953 69.3494 95.8765 70.872Z" fill="#0E2D3D"/>
<path d="M89.1168 73.7133C89.0838 73.101 88.6871 71.7079 87.7301 72.0978C86.7731 72.4878 87.7887 75.3249 88.4235 75.1504C88.4235 75.1504 89.1949 75.1618 89.1168 73.7133Z" fill="#EEA987"/>
<path d="M92.5072 79.2502C92.4769 79.57 92.4436 79.9231 92.4133 80.2847C92.4133 80.2847 90.1504 80.1565 88.6378 76.9562C88.7364 77.096 90.3944 79.4116 92.5072 79.2502Z" fill="#A77860"/>
<path d="M36.3661 156.176C39.6536 153.978 43.501 138.66 43.7305 129.536C43.8481 124.863 45.3011 122.916 46.5831 121.198C47.8085 119.556 48.8669 118.138 48.2505 114.881C47.0723 108.659 50.1698 105.972 50.2013 105.946L49.8426 105.557C49.7048 105.672 46.4788 108.443 47.7153 114.973C48.2912 118.016 47.3418 119.288 46.1396 120.899C44.8783 122.589 43.3085 124.693 43.1869 129.524C42.9405 139.315 39.0071 153.778 36.0533 155.753L36.3661 156.176Z" fill="url(#paint3_linear_7_6180)"/>
<path d="M29.4755 151.708C29.165 151.039 28.8441 150.348 28.4806 149.618C26.6025 145.849 24.9391 145.228 22.1829 144.2C21.5094 143.949 20.7461 143.664 19.9082 143.306C15.9602 141.619 16.7245 139.133 17.399 136.94C17.4933 136.633 17.5874 136.327 17.669 136.024C18.0162 134.734 17.3491 134.087 16.3393 133.108C15.5888 132.38 14.6547 131.473 13.9347 130.042C13.1467 128.476 13.5483 127.636 14.0241 127.208C15.0257 126.305 17.335 126.471 19.5155 127.603C20.1929 127.955 20.7505 128.51 21.3409 129.098C22.7309 130.481 24.4607 132.204 28.8359 132.223C31.3305 132.234 32.697 132.562 33.4047 133.318C34.2078 134.176 34.0565 135.46 33.8468 137.238C33.7743 137.853 33.6922 138.55 33.6424 139.303C33.3447 143.796 36.1342 147.037 36.1618 147.068C37.8284 148.955 39.8817 152.869 38.9954 155.279C38.624 156.289 37.7933 156.924 36.5262 157.168C36.0214 157.265 35.5602 157.311 35.1361 157.311C32.0758 157.311 30.956 154.898 29.4755 151.708ZM19.2547 128.057C17.3076 127.046 15.2197 126.842 14.398 127.583C13.7735 128.146 14.068 129.11 14.4251 129.819C15.1062 131.173 15.9677 132.009 16.7276 132.746C17.7843 133.771 18.6188 134.581 18.1956 136.153C18.1126 136.461 18.017 136.773 17.9208 137.085C17.2492 139.269 16.6149 141.332 20.1311 142.835C20.957 143.187 21.7137 143.47 22.3815 143.719C25.1637 144.757 27.0018 145.443 28.972 149.397C29.3386 150.133 29.661 150.827 29.9729 151.499C31.6736 155.164 32.7001 157.376 36.4183 156.661C37.4841 156.457 38.1784 155.934 38.4822 155.108C39.2631 152.985 37.3946 149.268 35.7449 147.4C35.624 147.262 32.788 143.975 33.0997 139.271C33.1504 138.505 33.2334 137.802 33.3065 137.181C33.5004 135.536 33.6405 134.347 32.9987 133.662C32.4117 133.035 31.1271 132.75 28.8333 132.74C24.227 132.72 22.4088 130.909 20.9476 129.455C20.3629 128.873 19.858 128.37 19.2547 128.057Z" fill="url(#paint4_linear_7_6180)"/>
<path d="M36.4673 160.295L37.0103 160.268C36.9835 159.783 36.2986 148.352 31.471 145.006C26.1746 141.336 24.5047 137.391 23.7095 134.744C22.7722 131.624 18.0026 130.79 17.7999 130.756L17.7054 131.265C17.7516 131.273 22.3431 132.077 23.1866 134.886C24.004 137.607 25.7188 141.659 31.1507 145.424C35.7713 148.626 36.4609 160.179 36.4673 160.295Z" fill="url(#paint5_linear_7_6180)"/>
<path d="M35.5483 162.866C34.4123 162.328 34.4535 160.166 34.5158 156.893C34.5947 152.756 34.7025 147.092 32.4251 141.881C30.0058 136.346 32.1635 134.729 34.2502 133.164C36.5872 131.412 38.7947 129.757 34.558 122.287C32.6123 118.856 31.9944 116.535 32.6139 114.983C33.2261 113.45 34.9439 112.852 36.7624 112.219C39.9013 111.127 43.4591 109.889 42.9996 103.573C42.8588 101.636 43.0981 100.446 43.7531 99.8253C44.4648 99.1516 45.5134 99.2246 46.7275 99.3089C48.5619 99.4366 50.6398 99.5811 52.4499 97.3356C52.638 96.7745 54.3687 91.7665 56.439 90.9091C56.8737 90.7291 57.2998 90.7313 57.7054 90.9158C59.1345 91.5656 59.9639 92.3364 60.2408 93.2721C60.7227 94.8996 59.4687 96.7353 58.0168 98.8608C55.7352 102.201 53.1489 105.987 55.8313 110.492C59.3777 116.449 57.5045 118.534 54.912 121.419C53.4267 123.072 51.7433 124.945 50.6178 128.001C49.7127 130.459 51.2566 132.802 52.7499 135.068C54.6229 137.911 56.5597 140.85 52.4818 143.401C45.7397 147.618 39.0813 161.384 39.0149 161.523L38.9874 161.58L38.9353 161.619C37.6932 162.544 36.7889 162.986 36.108 162.986C35.9021 162.986 35.7166 162.946 35.5483 162.866ZM52.183 142.969C55.8167 140.697 54.182 138.215 52.2892 135.343C50.8004 133.083 49.1131 130.523 50.1047 127.83C51.2639 124.683 52.9823 122.771 54.4986 121.083C57.0388 118.256 58.717 116.389 55.358 110.747C52.5133 105.969 55.312 101.871 57.5609 98.5793C58.9408 96.5591 60.1326 94.8145 59.7176 93.4123C59.4854 92.6282 58.7506 91.9642 57.471 91.3823C57.2105 91.2638 56.944 91.264 56.6563 91.3832C54.7355 92.1785 52.972 97.4803 52.9543 97.5338L52.9402 97.5767L52.9117 97.6126C50.9167 100.119 48.5721 99.956 46.6878 99.8246C45.562 99.7463 44.6728 99.6844 44.137 100.192C43.6093 100.691 43.4146 101.786 43.542 103.537C44.0299 110.241 40.1039 111.607 36.9493 112.705C35.177 113.322 33.6463 113.854 33.1224 115.167C32.5632 116.568 33.1714 118.752 35.0367 122.041C39.4902 129.894 36.9975 131.763 34.5869 133.57C32.5706 135.082 30.666 136.51 32.9272 141.683C35.2483 146.993 35.1393 152.72 35.0596 156.902C35.0052 159.756 34.9623 162.011 35.7907 162.404C36.2756 162.633 37.2031 162.245 38.548 161.251C39.0871 160.137 45.4641 147.172 52.183 142.969Z" fill="url(#paint6_linear_7_6180)"/>
<path d="M24.9064 102.866C28.3377 101.747 27.625 108.035 29.0747 112.687C30.5246 117.34 45.2045 114.717 39.0426 126.366C32.8807 138.016 46.8355 130.262 42.6673 140.428C38.4989 150.594 42.3048 161.467 37.7739 158.702C33.2431 155.936 35.2285 143.134 30.5164 141.613C25.8043 140.092 25.0355 138.318 29.7008 134.182C34.3663 130.047 17.4757 125.942 21.6441 117.592C25.8126 109.241 20.9421 104.158 24.9064 102.866Z" fill="url(#paint7_linear_7_6180)"/>
<path d="M36.1946 158.034C36.6261 156.293 40.3113 140.978 36.8727 139.126C33.8422 137.495 33.9168 131.148 34.3896 125.156C34.808 119.851 27.6418 117.371 27.3365 117.268L27.1547 117.755C27.2256 117.779 34.2348 120.207 33.8474 125.117C33.3619 131.271 33.3098 137.802 36.6048 139.576C39.2156 140.982 36.8118 153.291 35.6653 157.915L36.1946 158.034Z" fill="white"/>
<path d="M49.1408 152.58L44.2417 170.251H33.2935L28.3944 152.58H49.1408Z" fill="url(#paint8_linear_7_6180)"/>
<path d="M49.1408 152.58C49.1408 152.58 38.3557 154.505 38.3557 170.251H33.2935L28.3945 152.58H49.1408Z" fill="url(#paint9_linear_7_6180)"/>
<path opacity="0.95" d="M186.866 41.3047H154.541C151.582 41.3047 149.184 39.0245 149.184 36.2118V9.54477C149.184 6.73196 151.582 4.45184 154.541 4.45184H186.866C189.825 4.45184 192.223 6.73206 192.223 9.54477V36.2118C192.223 39.0245 189.825 41.3047 186.866 41.3047Z" fill="url(#paint10_linear_7_6180)"/>
<path d="M172.247 34.3346H168.834V34.9356H172.247V34.3346Z" fill="#4598E6"/>
<path d="M173.627 1.22418C173.627 1.22418 176.378 2.66 175.504 6.19061C174.631 9.72123 174.299 10.1874 175.009 11.614C175.718 13.0408 176.342 19.0192 175.585 20.1129C174.828 21.2066 167.157 14.7779 166.304 9.63517C165.452 4.4923 167.371 2.30806 168.051 1.49291C168.732 0.677754 171.201 -0.0868236 173.627 1.22418Z" fill="#344052"/>
<path d="M178.791 30.405H175.847C175.704 29.0241 175.573 28.0629 175.6 27.9206C175.643 27.6859 172.669 20.2707 172.392 19.6574C172.113 19.0457 171.022 17.401 170.88 15.8521C170.736 14.3033 172.861 13.6779 172.861 13.6779C175.728 14.1663 176.699 17.9372 176.699 17.9372C176.699 17.9372 177.903 25.5837 178.512 27.7356C178.669 28.2872 178.753 29.2621 178.791 30.405Z" fill="#EEA886"/>
<path d="M177.309 19.7788L172.924 21.5363C172.924 21.5363 168.894 12.0273 172.272 13.089C175.64 14.1475 177.155 16.1373 177.309 19.7788Z" fill="#EB4747"/>
<path d="M176.333 24.2558C176.205 25.1998 175.681 28.5442 175.798 29.4472C175.818 29.5961 175.883 29.9389 175.98 30.4049H165.407C165.688 29.4505 165.944 28.6058 166.099 28.1142C166.613 26.4951 166.121 26.0616 165.861 24.7665C165.76 24.2593 165.405 23.2963 165.018 22.2083C164.888 21.8452 164.755 21.4666 164.627 21.0862C164.162 19.7156 163.946 18.3141 163.812 17.4986C163.174 13.6317 166.303 13.2598 166.303 13.2598C167.465 13.0559 169.496 12.4596 169.496 12.4596L172.677 13.0885C172.677 13.0885 172.98 13.1964 173.421 13.5066C173.421 13.5066 173.423 13.5066 173.423 13.5083C173.635 13.6573 173.881 13.8527 174.138 14.1045C174.486 14.4438 175.178 15.4151 175.868 16.4825C176.079 16.8098 176.292 17.1455 176.492 17.4762C177.139 18.5401 177.598 19.3985 177.584 20.3665C177.571 21.3194 176.461 23.3118 176.333 24.2558Z" fill="#EB4747"/>
<path d="M172.677 13.0894C172.677 13.0894 174.67 16.3273 173.928 16.5691C173.187 16.8108 169.282 15.9934 167.756 12.9342C167.756 12.9342 170.32 11.8265 172.677 13.0894Z" fill="#EEA886"/>
<path d="M172.392 14.5681C172.392 14.5681 170.622 15.2802 169.019 12.936C169.019 12.936 169.449 10.2741 168.539 8.73423C167.628 7.19494 172.519 10.5799 172.519 10.5799C172.519 10.5799 172.44 10.8974 172.358 11.366C172.316 11.6058 172.273 11.8847 172.24 12.1808C172.212 12.4275 172.191 12.6866 172.182 12.9446C172.161 13.5434 172.206 14.1377 172.392 14.5681Z" fill="#EEA886"/>
<path d="M167.997 18.1947C167.632 19.9766 165.018 22.2088 165.018 22.2088C164.889 21.8447 164.755 21.4669 164.627 21.0871C166.431 19.9928 167.997 18.1947 167.997 18.1947Z" fill="#393D63"/>
<path d="M167.341 19.6128C167.175 20.2621 166.413 26.8394 166.496 27.0638C166.544 27.1924 166.914 28.7139 167.283 30.4049H163.87C163.521 29.3153 163.313 28.4105 163.364 27.8983C163.582 25.6796 162.791 18.6071 162.791 18.6071C162.791 18.6071 162.082 14.3289 165.816 13.7944C165.816 13.7944 168.022 14.0703 168.156 15.6191C168.289 17.1695 167.507 18.9652 167.341 19.6128Z" fill="#EEA886"/>
<path d="M162.515 20.5214L167.149 21.5504C167.149 21.5504 170.825 14.7648 167.514 13.5259C164.025 12.22 161.678 16.8198 162.515 20.5214Z" fill="#EB4747"/>
<path d="M173.199 1.60081C173.199 1.60081 177.227 3.00601 174.674 9.6133C172.121 16.2206 166.91 8.48539 167.698 4.42514C168.485 0.364989 173.199 1.60081 173.199 1.60081Z" fill="#EEA987"/>
<path d="M175.291 5.61703C175.291 5.61703 173.166 7.42093 169.755 7.50508C169.755 7.50508 168.957 9.35259 168.828 9.91961C168.828 9.91961 165.458 4.41837 169.333 1.63956C173.208 -1.13926 176.722 4.46451 175.291 5.61703Z" fill="#344052"/>
<path d="M170.215 7.90126C170.213 7.41196 169.952 6.28689 169.174 6.56354C168.395 6.84019 169.092 9.13878 169.605 9.02231C169.605 9.02242 170.22 9.05906 170.215 7.90126Z" fill="#EEA987"/>
<path d="M172.186 12.8318C170.294 12.3342 169.562 10.6192 169.54 10.5618C171.079 12.4525 172.24 12.1809 172.24 12.1809C172.212 12.4276 172.21 12.5817 172.186 12.8318Z" fill="#A77860"/>
<path d="M180.934 11.1211V11.7088H184.573V14.9566H185.192V11.1211H180.934ZM156.216 14.9566H156.834V11.7088H160.474V11.1211H156.216V14.9566H156.216ZM184.573 31.7155V34.9645H180.934V35.5522H185.192V31.7155H184.573ZM156.834 31.7155H156.216V35.5522H160.474V34.9645H156.834V31.7155H156.834Z" fill="#4598E6"/>
<path d="M116.419 61.8686H111.86V62.6714H116.419V61.8686Z" fill="#4598E6"/>
<path d="M127.803 30.8622V31.6472H132.665V35.9854H133.491V30.8622H127.803ZM94.7878 35.9853H95.6136V31.6471H100.475V30.8621H94.7878V35.9853ZM132.665 58.3699V62.7097H127.804V63.4948H133.491V58.37H132.665V58.3699ZM95.6136 58.3699H94.7878V63.4947H100.475V62.7096H95.6136V58.3699Z" fill="#4598E6"/>
<path d="M256.852 91.1773H252.995C252.925 91.0306 252.868 90.9029 252.821 90.8009C251.676 88.2319 245.779 82.3411 245.779 82.3411C245.779 82.3411 245.779 82.3443 245.779 82.3539C245.779 82.3539 245.776 82.357 245.776 82.3602C245.776 82.3602 245.776 82.3633 245.776 82.3667C245.772 82.3762 245.769 82.3825 245.766 82.392C245.762 82.4048 245.759 82.4208 245.752 82.4401C245.749 82.4496 245.745 82.4623 245.745 82.4718C245.742 82.4814 245.739 82.4878 245.735 82.4974C245.494 83.3558 244.305 87.632 243.711 91.1773H217.614C217.554 90.8487 217.484 90.5359 217.403 90.2456C217.165 89.3648 217.004 88.4935 216.899 87.6799C216.896 87.6384 216.889 87.6 216.886 87.5586C216.866 87.4086 216.849 87.2587 216.836 87.1118C216.611 84.8844 216.779 83.1771 216.792 83.0048C216.718 83.1548 216.191 84.9928 215.5 87.2616C215.12 88.5062 214.691 89.8816 214.265 91.1772H208.102L215.835 69.9655C216.007 69.8379 218.014 68.9158 219.477 68.2519C220.971 67.5754 222.773 66.5827 224.401 65.734C225.234 65.3 226.019 64.9074 226.701 64.6106L226.805 64.566V64.5629C227.929 64.0745 228.678 63.7522 228.678 63.7522C228.678 63.7522 228.678 63.7522 228.681 63.7522C228.708 63.7491 228.886 63.733 229.168 63.7075C230.738 63.5639 235.612 63.1299 237.243 63.0407C237.378 63.031 237.492 63.0279 237.579 63.0247C237.653 63.0216 237.71 63.0216 237.743 63.0247C237.948 63.0374 238.955 63.3694 240.274 63.8481C240.324 63.864 240.375 63.8831 240.425 63.9023C240.489 63.9247 240.549 63.947 240.613 63.9693C240.727 64.011 240.845 64.0524 240.962 64.097C241.197 64.1864 241.442 64.2757 241.687 64.3682C241.771 64.4002 241.858 64.432 241.946 64.464C244.587 65.4597 247.615 66.6946 248.333 67.186C248.81 67.5083 250.29 70.1602 252.005 73.4406C253.851 79.0637 256.11 87.1757 256.852 91.1773Z" fill="#DECBC4"/>
<path d="M237.701 62.3038C237.632 65.6391 230.84 67.4636 230.84 67.4636C230.84 67.4636 227.998 64.0772 228.677 63.7528C228.944 63.6254 229.052 63.1199 229.085 62.5532C229.116 62.0138 229.08 61.4186 229.046 61.0405C229.026 60.8047 229.007 60.6529 229.007 60.6529C229.007 60.6529 229.977 59.6794 231.212 58.5197C233.37 56.4915 236.335 53.8935 236.34 54.9271C236.34 54.9818 236.332 55.0472 236.315 55.123C235.794 57.449 237.701 62.3038 237.701 62.3038Z" fill="#EEA886"/>
<path d="M235.085 57.4171C235.085 57.4171 235.085 57.4171 235.085 57.4177C235.071 57.4371 234.783 57.8469 234.291 58.435C233.249 59.682 231.289 61.7304 229.085 62.5533C229.116 62.0138 229.079 61.4186 229.046 61.0406C228.821 61.0352 228.595 61.0103 228.372 60.9633C228.976 59.9598 229.848 58.9075 229.848 58.9075L231.212 58.5197L235.085 57.4171Z" fill="#A77860"/>
<path d="M236.389 54.9722C235.802 56.1874 235.244 57.0682 235.085 57.4171C235.085 57.4171 235.085 57.4171 235.085 57.4177C234.982 57.645 234.701 58.0155 234.292 58.435C233.172 59.5815 231.092 61.0937 229.046 61.0406C228.821 61.0353 228.595 61.0103 228.372 60.9634C227.546 60.7918 226.571 60.427 226.034 59.4281C221.797 51.5404 224.865 45.0905 224.865 45.0905C224.865 45.0905 236.451 41.9754 238.264 45.2915C239.536 47.6174 237.77 52.1168 236.389 54.9722Z" fill="#EEA886"/>
<path d="M224.865 45.0905C224.865 45.0905 223.788 45.0338 223.522 43.0942C223.259 41.178 223.791 40.6469 223.791 40.6469C223.791 40.6469 228.574 38.7432 230.292 38.4956C232.01 38.248 236.234 38.0103 237.224 39.0868C237.224 39.0868 239.629 38.5554 240.284 42.3519C241.324 48.375 236.742 54.2235 236.742 54.2235C236.742 54.2235 236.781 50.2886 235.868 49.7673C234.955 49.2459 234.168 50.4859 234.168 50.4859L232.3 50.8038C232.3 50.8038 235.136 44.9823 231.734 44.7667C228.333 44.5509 226.812 45.4281 224.865 45.0905Z" fill="#E8734D"/>
<path d="M234.219 48.9171C234.396 47.1835 237.694 46.5217 237.473 48.3385C237.252 50.1556 235.628 51.9013 234.878 51.8398C234.128 51.7784 234.083 50.2383 234.219 48.9171Z" fill="#EEA886"/>
<path d="M253.519 73.6036C252.445 70.3328 251.515 67.7448 251.102 67.4639C250.381 66.9725 244.661 65.4758 241.946 64.4643C241.859 64.4323 241.771 64.4004 241.687 64.3685C241.442 64.276 241.197 64.1866 240.962 64.0974C240.845 64.0527 240.728 64.0113 240.613 63.9696C240.55 63.9473 240.489 63.925 240.425 63.9027C240.375 63.8834 240.325 63.8644 240.274 63.8484C240.271 63.8516 240.268 63.858 240.261 63.8611C240.019 64.1195 238.764 65.4758 237.264 67.5055C234.458 71.2965 230.802 77.4395 231.363 83.1102C231.544 84.9292 231.766 87.5427 232.138 90.4754C232.165 90.7083 232.195 90.9413 232.229 91.1774H244.89C245.044 88.1075 245.319 84.0643 245.735 82.4975C245.739 82.4879 245.742 82.4815 245.746 82.4719C245.746 82.4624 245.749 82.4496 245.752 82.4401C245.756 82.4241 245.762 82.4081 245.766 82.3921C245.769 82.3826 245.772 82.3763 245.776 82.3668C245.776 82.3635 245.776 82.3603 245.776 82.3603C245.776 82.357 245.779 82.354 245.779 82.354C245.779 82.354 248.844 86.9077 249.001 91.1774H256.97C256.58 87.2108 255.362 79.2169 253.519 73.6036Z" fill="#1B252D"/>
<path d="M226.754 64.6493C226.754 64.6493 225.798 67.6744 224.563 75.228C224.563 75.228 224.563 75.228 224.563 75.2311C224.519 75.4833 224.479 75.7417 224.435 76.0065C224.432 76.0353 224.425 76.0671 224.422 76.0991C224.392 76.2716 224.365 76.4502 224.338 76.629C224.334 76.6513 224.331 76.6705 224.328 76.6928C224.307 76.8108 224.287 76.9321 224.271 77.0564C224.224 77.3532 224.176 77.6596 224.13 77.9692C223.666 81.0518 223.049 85.9503 222.421 91.1774H217.416C217.145 89.7254 216.889 88.4043 216.91 87.4979C216.899 87.5171 216.893 87.5395 216.886 87.5586C216.487 88.6116 216.047 89.7573 215.6 90.8709C215.56 90.9731 215.52 91.0751 215.48 91.1773H206.853L215.446 69.8062C215.617 69.6785 217.829 68.5456 219.293 67.8852C220.82 67.1926 222.75 66.3405 224.462 65.5907C225.281 65.2301 226.049 64.8951 226.701 64.6111L226.754 64.6493Z" fill="#1B252D"/>
<path d="M238.391 72.1229L235.085 73.8973L236.498 75.2664L233.397 91.1774H232.229C231.799 87.9607 231.554 85.0728 231.363 83.1102C230.5 74.3409 239.704 64.4515 240.274 63.8484C240.717 64.0079 241.194 64.1835 241.687 64.3685L238.391 72.1229Z" fill="#51565C"/>
<path d="M226.805 64.5663C226.805 64.5663 225.569 68.3989 224.133 77.9692C223.67 81.0487 223.049 85.9504 222.421 91.1774H221.934L221.293 76.1439L222.867 74.5227L221.468 72.8602L224.462 65.5906C225.281 65.23 226.049 64.895 226.701 64.611L226.805 64.5663Z" fill="#51565C"/>
<path d="M240.441 63.8858L237.701 62.3038C237.701 62.3038 237.625 63.7322 230.839 67.4636L232.766 72.6232L240.441 63.8858Z" fill="#F5E2D9"/>
<path d="M229.035 63.0235C229.035 63.0235 229.141 64.5653 230.84 67.4636L227.079 72.1245L226.805 64.5653L229.035 63.0235Z" fill="#F5E2D9"/>
<path d="M230.85 67.4635C230.85 67.4635 231.578 70.235 231.316 71.011C231.316 71.011 229.714 71.5653 228.562 70.8724C228.562 70.8724 229.378 68.9323 230.85 67.4635Z" fill="#D44040"/>
<path d="M229.966 76.8873C229.198 81.8654 229.198 86.9012 229.483 91.1773H226.271C226.227 90.5742 226.187 89.9456 226.147 89.2881C225.549 79.4307 229.215 70.6229 229.215 70.6229L230.849 70.2337C230.849 70.2338 230.322 74.5897 229.966 76.8873Z" fill="#D44040"/>
<path d="M217.013 83.0299C216.891 85.3951 216.909 87.4957 216.909 87.4957C216.909 87.4957 216.909 87.4964 216.909 87.4972C216.908 87.5088 216.906 87.5727 216.901 87.6783C216.895 87.6382 216.89 87.5989 216.885 87.5595C216.487 88.6124 216.046 89.7569 215.601 90.8709C215.498 89.5797 215.471 88.3764 215.501 87.2621C215.679 80.6303 217.873 77.1527 217.873 77.1527C217.37 78.3086 217.129 80.7886 217.013 83.0299Z" fill="#070A0D"/>
<path d="M146.125 91.2057L135.862 96.5694L125.556 81.1492L138.021 77.0323L146.125 91.2057Z" fill="#292C47"/>
<path d="M145.475 90.7425L135.877 95.7583L126.238 81.3378L137.896 77.4879L145.475 90.7425Z" fill="white"/>
<path d="M148.989 88.0456C148.989 88.0456 147.203 87.2334 146.419 86.8088C145.635 86.3842 143.618 85.8014 143.455 85.663C143.292 85.5247 137.476 85.1835 137.123 84.8942C136.771 84.6049 136.428 85.5723 137.935 85.8863C139.442 86.2002 141.54 86.9678 141.655 87.5278C141.769 88.088 140.107 88.2206 139.938 88.6821C139.77 89.1434 139.985 89.04 140.224 89.1389C140.462 89.2379 142.202 88.3218 142.967 88.5819C143.732 88.8418 144.901 88.4819 145.487 88.6726C146.074 88.8635 148.925 89.7755 148.925 89.7755L148.989 88.0456Z" fill="#EEA886"/>
<path d="M135.362 94.6346C135.362 94.6346 133.861 93.3504 133.135 92.8131C132.409 92.2761 131.046 90.6958 130.845 90.6038C130.645 90.5118 128.042 85.4338 127.618 85.2304C127.194 85.0269 128.019 84.343 128.917 85.5713C129.815 86.7997 131.393 88.3801 131.993 88.2648C132.592 88.1494 132.076 86.6079 132.468 86.2773C132.86 85.9468 132.841 86.1804 133.032 86.3553C133.223 86.5303 132.992 88.4457 133.548 89.0298C134.104 89.6141 134.202 90.802 134.62 91.253C135.037 91.704 137.051 93.9033 137.051 93.9033L135.362 94.6346Z" fill="#EEA886"/>
<path d="M167.681 163.271C167.681 163.271 168.006 165.413 168.046 165.735C168.087 166.057 171.658 165.545 171.658 165.545L171.947 162.995C171.947 162.995 168.127 162.968 167.681 163.271Z" fill="#424773"/>
<path d="M168.008 165.462C168.008 165.462 166.877 166.753 165.783 167.316C164.689 167.878 162.969 168.101 162.322 168.684C161.855 169.104 160.621 170.914 165.166 170.878C169.71 170.841 171.901 171.133 172.388 170.439C172.875 169.745 171.683 165.317 171.683 165.317C171.683 165.317 170.607 165.685 168.008 165.462Z" fill="#292C47"/>
<path d="M142.097 163.271C142.097 163.271 142.422 165.413 142.462 165.735C142.503 166.057 146.074 165.545 146.074 165.545L146.363 162.995C146.363 162.995 142.544 162.968 142.097 163.271Z" fill="#424773"/>
<path d="M142.424 165.462C142.424 165.462 141.293 166.753 140.199 167.316C139.105 167.878 135.078 168.341 134.431 168.923C133.964 169.343 133.187 171.036 139.582 170.878C144.124 170.765 146.317 171.133 146.804 170.439C147.291 169.746 146.099 165.317 146.099 165.317C146.099 165.317 145.085 165.71 142.424 165.462Z" fill="#292C47"/>
<path d="M164.724 108.225C164.724 108.225 168.079 113.293 167.829 117.874C167.579 122.455 169.046 127.456 169.55 132.242C170.112 137.577 172.411 150.207 172.494 153.06C172.578 155.914 172.137 165.027 172.137 165.027L167.535 165.127C167.535 165.127 163.669 143.047 162.668 140.794C161.666 138.541 156.701 122.479 156.534 120.676C156.368 118.874 164.724 108.225 164.724 108.225Z" fill="#292C47"/>
<path d="M147.063 108.911C147.063 108.911 144.534 121.467 144.201 124.271C143.867 127.075 143.644 137.84 143.477 139.592C143.311 141.344 142.365 162.523 141.475 165.127H147.359C147.359 165.127 151.876 149.73 151.876 142.446C151.876 135.161 155.366 126.609 157.619 121.803C159.872 116.996 165.028 116.883 166.413 107.965C166.413 107.965 148.938 106.083 147.063 108.911Z" fill="#292C47"/>
<path d="M159.126 65.6169C159.126 65.6169 154.623 64.0177 152.546 67.2768C150.47 70.5358 150.67 77.0606 152.94 77.863C155.21 78.6653 158.62 78.2457 159.782 76.2065C160.944 74.1672 161.993 71.219 161.943 69.2486C161.892 67.2783 160.308 66.1858 159.126 65.6169Z" fill="#EEA886"/>
<path d="M153.429 78.0121C153.429 78.0121 153.616 79.168 153.306 79.7376C152.997 80.307 159.14 80.3218 159.14 80.3218C159.14 80.3218 159.639 77.2245 160.585 74.6076C161.53 71.9905 153.429 78.0121 153.429 78.0121Z" fill="#EEA886"/>
<path d="M160.585 74.6076C160.585 74.6076 160.161 75.2727 158.43 75.0146C156.699 74.7566 154.587 72.567 153.864 72.3267C153.142 72.0863 153.135 71.6827 153.135 71.6827L152.682 72.311L151.915 72.3572C151.915 72.3572 152.615 70.3987 151.559 69.5999C150.502 68.801 152.655 63.2606 158.206 65.1052C158.206 65.1052 162.47 66.2226 162.315 68.528C162.16 70.8333 161.539 73.4593 160.585 74.6076Z" fill="#3A3F47"/>
<path d="M152.941 79.6689C152.941 79.6689 152.961 78.5809 153.48 78.4766C153.998 78.3724 159.205 77.8964 159.842 78.1344V79.4017C159.842 79.4017 158.615 80.1196 152.941 79.6689Z" fill="#E2D2CA"/>
<path d="M153.249 70.8442C153.347 70.4575 154.381 69.3525 154.777 70.5356C155.173 71.7188 154.178 73.3102 153.624 73.174C153.069 73.0378 153.003 71.8246 153.249 70.8442Z" fill="#EEA886"/>
<path d="M132.277 92.5237C132.279 92.5227 132.282 92.5224 132.285 92.5231C132.25 92.5386 132.245 92.5401 132.277 92.5237Z" fill="#323657"/>
<path d="M168.509 120.298C168.509 120.298 165.748 121.071 161.038 121.564C156.329 122.058 144.562 121.386 144.488 120.857C144.413 120.328 147.019 101.16 146.871 100.173C146.722 99.1859 146.643 95.6687 146.643 95.6687C146.585 96.6324 145.552 100.569 144.305 102.715C143.855 103.49 142.344 105.92 141.616 105.368C138.091 102.692 132.632 92.608 132.286 92.523C132.577 92.4027 134.873 91.3976 135.195 91.2955C135.477 91.2059 138.02 93.7659 139.561 95.3529C140.248 96.0602 140.736 96.5742 140.736 96.5742C141.181 95.6224 142.802 89.6262 143.305 87.5509C144.441 82.8709 144.267 82.6763 144.267 82.6763C147.712 81.6854 152.941 79.6687 152.941 79.6687L159.842 79.4015C159.842 79.4015 166.175 80.7269 168.669 81.798C168.905 81.8994 168.906 87.1693 169.556 88.5513L167.488 92.6988C167.488 92.6988 166.293 100.915 166.046 104.569C165.932 106.246 168.509 120.298 168.509 120.298Z" fill="#FFDF69"/>
<path d="M169.843 95.3932C169.662 95.9461 168.844 96.4133 168.313 96.6176C167.973 96.7486 167.592 96.7909 167.208 96.7233L166.938 96.6758V96.6755L162.209 95.8418C162.209 95.8418 161.174 84.5126 168.669 81.7982C168.867 81.8597 171.498 90.3207 169.843 95.3932Z" fill="#FFDF69"/>
<path d="M168.313 96.6174V96.6177C167.973 96.7486 167.591 96.7909 167.208 96.7234L166.938 96.6758V96.6755L167.404 90.8862L168.313 96.6174Z" fill="#AB9546"/>
<path d="M140.736 96.5744L140.158 98.9014C140.158 98.9014 139.531 96.5663 139.561 95.3531C140.248 96.0604 140.736 96.5744 140.736 96.5744Z" fill="#AB9546"/>
<path d="M160.408 66.0015C160.408 66.0015 166.31 65.2988 160.508 74.6713L160.408 66.0015Z" fill="#3A3F47"/>
<path d="M130.3 80.3218L129.7 79.3418L134.425 77.7919L135.025 78.7665L130.3 80.3218Z" fill="#292C47"/>
<g opacity="0.95">
<path opacity="0.95" d="M220.426 38.3292H223.774L222.75 36.3088H219.402L220.426 38.3292Z" fill="url(#paint11_linear_7_6180)"/>
<path opacity="0.95" d="M218.86 38.3292H219.658L218.633 36.3088H217.835L218.86 38.3292Z" fill="url(#paint12_linear_7_6180)"/>
<path opacity="0.95" d="M207.294 35.9228H220.849L220.4 34.9127H206.844L207.294 35.9228Z" fill="url(#paint13_linear_7_6180)"/>
</g>
<path d="M134.496 3.70817H129.378C129.205 3.70817 129.065 3.57502 129.065 3.41072V2.35978C129.065 2.19548 129.205 2.06244 129.378 2.06244H134.496C134.669 2.06244 134.809 2.19559 134.809 2.35978V3.41072C134.809 3.57502 134.669 3.70817 134.496 3.70817Z" fill="url(#paint14_linear_7_6180)"/>
<path d="M134.496 7.6547H129.378C129.205 7.6547 129.065 7.52144 129.065 7.35725V6.30642C129.065 6.14202 129.205 6.00897 129.378 6.00897H134.496C134.669 6.00897 134.809 6.14212 134.809 6.30642V7.35725C134.809 7.52144 134.669 7.6547 134.496 7.6547Z" fill="url(#paint15_linear_7_6180)"/>
<path d="M134.496 11.6012H129.378C129.205 11.6012 129.065 11.468 129.065 11.3037V10.2528C129.065 10.0885 129.205 9.95538 129.378 9.95538H134.496C134.669 9.95538 134.809 10.0886 134.809 10.2528V11.3037C134.809 11.4681 134.669 11.6012 134.496 11.6012Z" fill="url(#paint16_linear_7_6180)"/>
<path d="M138.502 3.70817H137.493C137.321 3.70817 137.181 3.57502 137.181 3.41072V2.35978C137.181 2.19548 137.321 2.06244 137.493 2.06244H138.502C138.675 2.06244 138.815 2.19559 138.815 2.35978V3.41072C138.815 3.57502 138.675 3.70817 138.502 3.70817Z" fill="url(#paint17_linear_7_6180)"/>
<path d="M138.502 7.6547H137.493C137.321 7.6547 137.181 7.52144 137.181 7.35725V6.30642C137.181 6.14202 137.321 6.00897 137.493 6.00897H138.502C138.675 6.00897 138.815 6.14212 138.815 6.30642V7.35725C138.815 7.52144 138.675 7.6547 138.502 7.6547Z" fill="url(#paint18_linear_7_6180)"/>
<path d="M138.502 11.6012H137.493C137.321 11.6012 137.181 11.468 137.181 11.3037V10.2528C137.181 10.0885 137.321 9.95538 137.493 9.95538H138.502C138.675 9.95538 138.815 10.0886 138.815 10.2528V11.3037C138.815 11.4681 138.675 11.6012 138.502 11.6012Z" fill="url(#paint19_linear_7_6180)"/>
<path d="M116.263 92.5892H122.272L120.433 88.9625H114.424L116.263 92.5892Z" fill="url(#paint20_linear_7_6180)"/>
<path d="M113.451 92.5892H114.883L113.044 88.9625H111.612L113.451 92.5892Z" fill="url(#paint21_linear_7_6180)"/>
<defs>
<linearGradient id="paint0_linear_7_6180" x1="114.139" y1="88.9487" x2="114.139" y2="38.4297" gradientUnits="userSpaceOnUse">
<stop stop-color="#013947"/>
<stop offset="1" stop-color="#336D7A"/>
</linearGradient>
<linearGradient id="paint1_linear_7_6180" x1="234.018" y1="147" x2="234.018" y2="65.8439" gradientUnits="userSpaceOnUse">
<stop stop-color="#013947"/>
<stop offset="1" stop-color="#336D7A"/>
</linearGradient>
<linearGradient id="paint2_linear_7_6180" x1="110.347" y1="176.783" x2="110.347" y2="167.9" gradientUnits="userSpaceOnUse">
<stop stop-color="#013947"/>
<stop offset="1" stop-color="#336D7A"/>
</linearGradient>
<linearGradient id="paint3_linear_7_6180" x1="50.2012" y1="130.867" x2="36.0534" y2="130.867" gradientUnits="userSpaceOnUse">
<stop stop-color="#3076A1"/>
<stop offset="1" stop-color="#48C9B6"/>
</linearGradient>
<linearGradient id="paint4_linear_7_6180" x1="39.2088" y1="141.97" x2="13.4884" y2="141.97" gradientUnits="userSpaceOnUse">
<stop stop-color="#3076A1"/>
<stop offset="1" stop-color="#48C9B6"/>
</linearGradient>
<linearGradient id="paint5_linear_7_6180" x1="37.0102" y1="145.526" x2="17.7053" y2="145.526" gradientUnits="userSpaceOnUse">
<stop stop-color="#3076A1"/>
<stop offset="1" stop-color="#48C9B6"/>
</linearGradient>
<linearGradient id="paint6_linear_7_6180" x1="60.3457" y1="126.881" x2="31.3561" y2="126.881" gradientUnits="userSpaceOnUse">
<stop stop-color="#3076A1"/>
<stop offset="1" stop-color="#48C9B6"/>
</linearGradient>
<linearGradient id="paint7_linear_7_6180" x1="43.085" y1="156.967" x2="27.6802" y2="108.358" gradientUnits="userSpaceOnUse">
<stop stop-color="#3076A1"/>
<stop offset="1" stop-color="#48C9B6"/>
</linearGradient>
<linearGradient id="paint8_linear_7_6180" x1="30.026" y1="188.407" x2="37.6919" y2="153.648" gradientUnits="userSpaceOnUse">
<stop stop-color="#C9C4C1"/>
<stop offset="1" stop-color="#FFF6DE"/>
</linearGradient>
<linearGradient id="paint9_linear_7_6180" x1="28.3944" y1="161.415" x2="49.1408" y2="161.415" gradientUnits="userSpaceOnUse">
<stop stop-color="#C9C4C1"/>
<stop offset="1" stop-color="#FFF6DE"/>
</linearGradient>
<linearGradient id="paint10_linear_7_6180" x1="170.704" y1="46.7154" x2="170.704" y2="13.2874" gradientUnits="userSpaceOnUse">
<stop stop-color="#013947"/>
<stop offset="1" stop-color="#336D7A"/>
</linearGradient>
<linearGradient id="paint11_linear_7_6180" x1="219.402" y1="37.319" x2="223.774" y2="37.319" gradientUnits="userSpaceOnUse">
<stop stop-color="#D1D7E0"/>
<stop offset="1" stop-color="#EBEBFF"/>
</linearGradient>
<linearGradient id="paint12_linear_7_6180" x1="217.835" y1="37.319" x2="219.658" y2="37.319" gradientUnits="userSpaceOnUse">
<stop stop-color="#D1D7E0"/>
<stop offset="1" stop-color="#EBEBFF"/>
</linearGradient>
<linearGradient id="paint13_linear_7_6180" x1="206.844" y1="35.4178" x2="220.849" y2="35.4178" gradientUnits="userSpaceOnUse">
<stop stop-color="#D1D7E0"/>
<stop offset="1" stop-color="#EBEBFF"/>
</linearGradient>
<linearGradient id="paint14_linear_7_6180" x1="129.065" y1="2.88521" x2="134.809" y2="2.88521" gradientUnits="userSpaceOnUse">
<stop stop-color="#D1D7E0"/>
<stop offset="1" stop-color="#EBEBFF"/>
</linearGradient>
<linearGradient id="paint15_linear_7_6180" x1="129.065" y1="6.83173" x2="134.809" y2="6.83173" gradientUnits="userSpaceOnUse">
<stop stop-color="#D1D7E0"/>
<stop offset="1" stop-color="#EBEBFF"/>
</linearGradient>
<linearGradient id="paint16_linear_7_6180" x1="129.065" y1="10.7783" x2="134.809" y2="10.7783" gradientUnits="userSpaceOnUse">
<stop stop-color="#D1D7E0"/>
<stop offset="1" stop-color="#EBEBFF"/>
</linearGradient>
<linearGradient id="paint17_linear_7_6180" x1="137.181" y1="2.88521" x2="138.815" y2="2.88521" gradientUnits="userSpaceOnUse">
<stop stop-color="#D1D7E0"/>
<stop offset="1" stop-color="#EBEBFF"/>
</linearGradient>
<linearGradient id="paint18_linear_7_6180" x1="137.181" y1="6.83173" x2="138.815" y2="6.83173" gradientUnits="userSpaceOnUse">
<stop stop-color="#D1D7E0"/>
<stop offset="1" stop-color="#EBEBFF"/>
</linearGradient>
<linearGradient id="paint19_linear_7_6180" x1="137.181" y1="10.7783" x2="138.815" y2="10.7783" gradientUnits="userSpaceOnUse">
<stop stop-color="#D1D7E0"/>
<stop offset="1" stop-color="#EBEBFF"/>
</linearGradient>
<linearGradient id="paint20_linear_7_6180" x1="114.424" y1="90.7758" x2="122.272" y2="90.7758" gradientUnits="userSpaceOnUse">
<stop stop-color="#D1D7E0"/>
<stop offset="1" stop-color="#EBEBFF"/>
</linearGradient>
<linearGradient id="paint21_linear_7_6180" x1="111.612" y1="90.7758" x2="114.883" y2="90.7758" gradientUnits="userSpaceOnUse">
<stop stop-color="#D1D7E0"/>
<stop offset="1" stop-color="#EBEBFF"/>
</linearGradient>
</defs>
</svg>

