<svg width="75" height="75" viewBox="-20 -10 75 75" fill="none" xmlns="http://www.w3.org/2000/svg">
<path d="M17.2444 0.497375C27.2394 0.497375 35.3368 8.40752 35.3368 18.1658C35.3368 27.924 27.2376 35.8342 17.2444 35.8342C11.6064 35.8342 6.39242 33.2952 2.98596 29.0389C2.89047 28.92 2.81984 28.7832 2.77828 28.6365C2.73672 28.4897 2.72507 28.3362 2.74402 28.1849C2.76298 28.0336 2.81215 27.8876 2.88861 27.7557C2.96508 27.6238 3.06728 27.5086 3.18914 27.4169C3.43765 27.2279 3.75 27.143 4.06001 27.1803C4.37003 27.2175 4.65336 27.374 4.84997 27.6166C7.81473 31.3181 12.3414 33.5231 17.2461 33.5231C25.9301 33.5231 32.971 26.6466 32.971 18.1658C32.971 9.68494 25.9301 2.8084 17.2461 2.8084C14.9029 2.79939 12.587 3.31059 10.4653 4.30512C8.34368 5.29965 6.46921 6.75271 4.97719 8.55946C4.77746 8.79983 4.49193 8.95292 4.1812 8.98623C3.87046 9.01955 3.55897 8.93048 3.31282 8.73791C3.19202 8.64468 3.0912 8.52809 3.01637 8.39509C2.94154 8.26209 2.89423 8.1154 2.87725 7.96375C2.86027 7.81209 2.87397 7.65857 2.91754 7.51232C2.9611 7.36606 3.03364 7.23007 3.13084 7.11242C6.54261 2.96035 11.6876 0.497375 17.2461 0.497375H17.2444ZM18.2073 12.6214L22.9901 17.4043C23.453 17.8672 23.4619 18.6057 23.0095 19.058L18.3398 23.7313C18.2299 23.8389 18.0998 23.9237 17.9571 23.9809C17.8144 24.0382 17.6618 24.0667 17.508 24.0649C17.3542 24.0631 17.2023 24.031 17.061 23.9704C16.9196 23.9098 16.7916 23.822 16.6843 23.7119C16.5743 23.6044 16.4866 23.4763 16.4261 23.3349C16.3657 23.1935 16.3338 23.0415 16.3321 22.8878C16.3305 22.734 16.3592 22.5814 16.4166 22.4388C16.474 22.2961 16.5589 22.1661 16.6666 22.0563L19.3999 19.3213L1.18378 19.323C1.03003 19.3249 0.877422 19.2964 0.734685 19.2393C0.591947 19.1821 0.461883 19.0974 0.351933 18.9899C0.241983 18.8824 0.154306 18.7543 0.0939174 18.6129C0.033529 18.4714 0.00161455 18.3195 0 18.1658C0 17.5279 0.530052 17.0103 1.18378 17.0103H19.3257L16.573 14.2558C16.463 14.1483 16.3752 14.0202 16.3148 13.8788C16.2544 13.7374 16.2225 13.5854 16.2208 13.4317C16.2192 13.2779 16.2479 13.1253 16.3053 12.9826C16.3627 12.84 16.4476 12.71 16.5553 12.6002C16.7771 12.3841 17.0756 12.2648 17.3853 12.2684C17.695 12.272 17.9906 12.3984 18.2073 12.6197V12.6214Z" fill="white"/>
</svg>
