<svg width="60" height="60" viewBox="-10 -6 60 60" fill="none" xmlns="http://www.w3.org/2000/svg">
<path d="M17.6684 11.7789C19.2947 11.7789 20.6131 10.4605 20.6131 8.8342C20.6131 7.20787 19.2947 5.88947 17.6684 5.88947C16.0421 5.88947 14.7237 7.20787 14.7237 8.8342C14.7237 10.4605 16.0421 11.7789 17.6684 11.7789Z" fill="white"/>
<path d="M8.8342 29.4473C10.4605 29.4473 11.7789 28.1289 11.7789 26.5026C11.7789 24.8763 10.4605 23.5579 8.8342 23.5579C7.20787 23.5579 5.88947 24.8763 5.88947 26.5026C5.88947 28.1289 7.20787 29.4473 8.8342 29.4473Z" fill="white"/>
<path d="M8.8342 20.6131C10.4605 20.6131 11.7789 19.2947 11.7789 17.6684C11.7789 16.042 10.4605 14.7236 8.8342 14.7236C7.20787 14.7236 5.88947 16.042 5.88947 17.6684C5.88947 19.2947 7.20787 20.6131 8.8342 20.6131Z" fill="white"/>
<path d="M8.8342 11.7789C10.4605 11.7789 11.7789 10.4605 11.7789 8.8342C11.7789 7.20787 10.4605 5.88947 8.8342 5.88947C7.20787 5.88947 5.88947 7.20787 5.88947 8.8342C5.88947 10.4605 7.20787 11.7789 8.8342 11.7789Z" fill="white"/>
<path d="M26.5026 11.7789C28.1289 11.7789 29.4473 10.4605 29.4473 8.8342C29.4473 7.20787 28.1289 5.88947 26.5026 5.88947C24.8763 5.88947 23.5579 7.20787 23.5579 8.8342C23.5579 10.4605 24.8763 11.7789 26.5026 11.7789Z" fill="white"/>
<path d="M16.196 26.6056V28.7111C16.196 29.1234 16.52 29.4473 16.9322 29.4473H18.9935C19.1849 29.4473 19.3763 29.3737 19.5089 29.2264L28.0928 20.6425L24.9713 17.5211L16.4169 26.0756C16.2696 26.2228 16.196 26.4142 16.196 26.6056ZM17.7126 20.6131L20.6131 17.7125V17.6684C20.6131 16.0488 19.288 14.7236 17.6684 14.7236C16.0488 14.7236 14.7237 16.0488 14.7237 17.6684C14.7237 19.288 16.0488 20.6131 17.6684 20.6131H17.7126ZM30.6988 17.0205L28.6228 14.9445C28.3283 14.65 27.8719 14.65 27.5774 14.9445L26.0167 16.5052L29.1381 19.6266L30.6988 18.0659C30.9933 17.7714 30.9933 17.315 30.6988 17.0205Z" fill="white"/>
</svg>
