<svg width="28" height="29" viewBox="0 0 28 29" fill="none" xmlns="http://www.w3.org/2000/svg">
<path d="M23.3333 3.5H20.6667V2.125C20.6667 1.76033 20.5262 1.41059 20.2761 1.15273C20.0261 0.894866 19.6869 0.75 19.3333 0.75C18.9797 0.75 18.6406 0.894866 18.3905 1.15273C18.1405 1.41059 18 1.76033 18 2.125V3.5H9.99999V2.125C9.99999 1.76033 9.85951 1.41059 9.60947 1.15273C9.35942 0.894866 9.02028 0.75 8.66666 0.75C8.31303 0.75 7.9739 0.894866 7.72385 1.15273C7.4738 1.41059 7.33332 1.76033 7.33332 2.125V3.5H4.66666C3.60579 3.5 2.58838 3.9346 1.83823 4.70818C1.08808 5.48177 0.666656 6.53098 0.666656 7.625V24.125C0.666656 25.219 1.08808 26.2682 1.83823 27.0418C2.58838 27.8154 3.60579 28.25 4.66666 28.25H23.3333C24.3942 28.25 25.4116 27.8154 26.1618 27.0418C26.9119 26.2682 27.3333 25.219 27.3333 24.125V7.625C27.3333 6.53098 26.9119 5.48177 26.1618 4.70818C25.4116 3.9346 24.3942 3.5 23.3333 3.5ZM24.6667 24.125C24.6667 24.4897 24.5262 24.8394 24.2761 25.0973C24.0261 25.3551 23.6869 25.5 23.3333 25.5H4.66666C4.31303 25.5 3.9739 25.3551 3.72385 25.0973C3.4738 24.8394 3.33332 24.4897 3.33332 24.125V14.5H24.6667V24.125ZM24.6667 11.75H3.33332V7.625C3.33332 7.26033 3.4738 6.91059 3.72385 6.65273C3.9739 6.39487 4.31303 6.25 4.66666 6.25H7.33332V7.625C7.33332 7.98967 7.4738 8.33941 7.72385 8.59727C7.9739 8.85513 8.31303 9 8.66666 9C9.02028 9 9.35942 8.85513 9.60947 8.59727C9.85951 8.33941 9.99999 7.98967 9.99999 7.625V6.25H18V7.625C18 7.98967 18.1405 8.33941 18.3905 8.59727C18.6406 8.85513 18.9797 9 19.3333 9C19.6869 9 20.0261 8.85513 20.2761 8.59727C20.5262 8.33941 20.6667 7.98967 20.6667 7.625V6.25H23.3333C23.6869 6.25 24.0261 6.39487 24.2761 6.65273C24.5262 6.91059 24.6667 7.26033 24.6667 7.625V11.75Z" fill="black"/>
</svg>
